<?xml version="1.0" standalone="no"?><!DOCTYPE svg PUBLIC "-//W3C//DTD SVG 1.1//EN" "http://www.w3.org/Graphics/SVG/1.1/DTD/svg11.dtd"><svg t="1681223033175" class="icon" viewBox="0 0 1028 1024" version="1.1" xmlns="http://www.w3.org/2000/svg" p-id="689" xmlns:xlink="http://www.w3.org/1999/xlink" width="200.78125" height="200"><path d="M460.8 190.4a33.6 30.4 0 1 0 67.2 0 33.6 30.4 0 1 0-67.2 0Z" p-id="690"></path><path d="M972.8 267.2l-328-76.8c0-81.6-68.8-145.6-148.8-145.6s-148.8 68.8-148.8 148.8c0 17.6 4.8 38.4 17.6 64l-12.8-4.8-262.4-67.2c-20.8-4.8-43.2 0-59.2 12.8-20.8 8-30.4 30.4-30.4 51.2v542.4c0 30.4 20.8 56 46.4 64L323.2 976h4.8c8 0 17.6 4.8 20.8 4.8 8 0 17.6 0 25.6-4.8L673.6 851.2l264 102.4H960c12.8 0 30.4-4.8 43.2-12.8 17.6-12.8 25.6-33.6 25.6-56V331.2c-4.8-30.4-27.2-60.8-56-64zM494.4 126.4c33.6 0 64 25.6 64 64 0 17.6-20.8 64-64 128-43.2-64-64-115.2-64-128 0-38.4 30.4-64 64-64z m-46.4 276.8c8 12.8 25.6 20.8 43.2 20.8s33.6-8 43.2-20.8c33.6-46.4 59.2-89.6 76.8-128l25.6-4.8v499.2l-256 107.2V334.4l17.6-4.8c14.4 22.4 32 48 49.6 73.6zM84.8 270.4l212.8 59.2v542.4L84.8 782.4v-512zM937.6 864l-212.8-84.8V292.8l212.8 51.2V864z" p-id="691"></path></svg>